<svg width="35" height="35" viewBox="0 0 35 35" fill="none" xmlns="http://www.w3.org/2000/svg">
<path d="M19.4185 26.5696H17H14.5815L12.9409 31.843H17H21.0592L19.4185 26.5696Z" fill="#CCE6FF"/>
<path d="M19.4185 26.5696H17V31.843H21.0591L19.4185 26.5696Z" fill="#B3CCFF"/>
<path d="M17 6.51562H3V27.7266H17H31V6.51562H17Z" fill="#333E73"/>
<path d="M17 6.51562H31V27.7266H17V6.51562Z" fill="#1F2859"/>
<path d="M17 8.27344H4.64062V25.9688H17H29.3594V8.27344H17Z" fill="#66CCFF"/>
<path d="M17 8.27344H29.3594V25.9688H17V8.27344Z" fill="#04439F"/>
<path d="M17 31.2422H9.61719V33H17H24.3828V31.2422H17Z" fill="#E6F7FF"/>
<path d="M17 31.2422H24.3828V33H17V31.2422Z" fill="#CCE6FF"/>
<path d="M17 3C14.7359 3 12.8984 4.96875 12.8984 7.39453C12.8984 9.82031 14.7359 11.7891 17 11.7891C19.2641 11.7891 21.1016 9.82031 21.1016 7.39453C21.1016 4.96875 19.2641 3 17 3Z" fill="#E6F7FF"/>
<path d="M21.1016 7.39453C21.1016 9.82031 19.2641 11.7891 17 11.7891V3C19.2641 3 21.1016 4.96875 21.1016 7.39453Z" fill="#CCE6FF"/>
<path d="M23.5625 17.0625C21.2984 17.0625 19.4609 19.0313 19.4609 21.457V22.3359H27.6641V21.457C27.6641 19.0313 25.8266 17.0625 23.5625 17.0625Z" fill="#CCE6FF"/>
<path d="M23.5625 11.7891C22.2007 11.7891 21.1016 12.9667 21.1016 14.4258C21.1016 15.8848 22.2007 17.0625 23.5625 17.0625C24.9243 17.0625 26.0234 15.8848 26.0234 14.4258C26.0234 12.9667 24.9243 11.7891 23.5625 11.7891Z" fill="#CCE6FF"/>
<path d="M10.4375 17.0625C8.17344 17.0625 6.33594 19.0313 6.33594 21.457V22.3359H14.5391V21.457C14.5391 19.0313 12.7016 17.0625 10.4375 17.0625Z" fill="#E6F7FF"/>
<path d="M10.4375 11.7891C9.07573 11.7891 7.97656 12.9667 7.97656 14.4258C7.97656 15.8848 9.07573 17.0625 10.4375 17.0625C11.7993 17.0625 12.8984 15.8848 12.8984 14.4258C12.8984 12.9667 11.7993 11.7891 10.4375 11.7891Z" fill="#E6F7FF"/>
<path d="M17 10.0312C18.3591 10.0312 19.4609 8.85075 19.4609 7.39453C19.4609 5.93831 18.3591 4.75781 17 4.75781C15.6409 4.75781 14.5391 5.93831 14.5391 7.39453C14.5391 8.85075 15.6409 10.0312 17 10.0312Z" fill="#333E73"/>
<path d="M19.4609 7.39453C19.4609 8.85346 18.3618 10.0312 17 10.0312V4.75781C18.3618 4.75781 19.4609 5.93549 19.4609 7.39453Z" fill="#1F2859"/>
<path d="M16.1797 6.51562H17.8203V8.27344H16.1797V6.51562Z" fill="#66CCFF"/>
<path d="M17 6.51562H17.8203V8.27344H17V6.51562Z" fill="#4DA6FF"/>
</svg>
